<svg xmlns="http://www.w3.org/2000/svg" xmlns:xlink="http://www.w3.org/1999/xlink" x="0" y="0" width="662" height="270" style="
        width:662px;
        height:270px;
        background: #FFF;
        fill: none;
">
        <svg xmlns="http://www.w3.org/2000/svg"/>
        
        <svg xmlns="http://www.w3.org/2000/svg" class="role-diagram-draw-area"><g class="shapes-region" style="stroke: black; fill: none;"><g class="composite-shape" data-amt="diagram/shapes/plot" transform="matrix(1,0,0,1,200,2)"><g><g/><g><g class="test-xti" style="font-family: Asana-Math, Asana;"><line x1="0" y1="131.00399780273438" x2="258" y2="131.00399780273438" fill="none" stroke="rgb(50,50,50)" stroke-opacity="1" stroke-width="1"/><path d="M253,127.40399780273438 L261,131.00399780273438 L253,134.60399780273437 Z" stroke="none" stroke-width="1" fill="rgb(50,50,50)" fill-opacity="1"/></g><g class="test-yti" style="font-family: Asana-Math, Asana;"><line x1="130.9540252685547" y1="4" x2="130.9540252685547" y2="262" fill="none" stroke="rgb(50,50,50)" stroke-opacity="1" stroke-width="1"/><path d="M127.3540252685547,9 L130.9540252685547,1 L134.55402526855468,9 Z" stroke="none" stroke-width="1" fill="rgb(50,50,50)" fill-opacity="1"/></g><g class="test-plot-expression"><defs><clipPath id="cpxt90oxjey"><rect x="1" y="1" width="260" height="260"/></clipPath></defs><g clip-path="url(#cpxt90oxjey)"><g><path d=" M0.00,-13.05 L0.00,261.96 L0.50,261.46 L1.00,260.96 L1.50,260.46 L2.00,259.95 L2.50,259.45 L3.01,258.95 L3.51,258.45 L4.01,257.95 L4.51,257.45 L5.01,256.95 L5.51,256.45 L6.01,255.95 L6.51,255.45 L7.01,254.94 L7.51,254.44 L8.02,253.94 L8.52,253.44 L9.02,252.94 L9.52,252.44 L10.02,251.94 L10.52,251.44 L11.02,250.94 L11.52,250.44 L12.02,249.94 L12.52,249.43 L13.02,248.93 L13.53,248.43 L14.03,247.93 L14.53,247.43 L15.03,246.93 L15.53,246.43 L16.03,245.93 L16.53,245.43 L17.03,244.93 L17.53,244.42 L18.03,243.92 L18.54,243.42 L19.04,242.92 L19.54,242.42 L20.04,241.92 L20.54,241.42 L21.04,240.92 L21.54,240.42 L22.04,239.92 L22.54,239.42 L23.04,238.91 L23.54,238.41 L24.05,237.91 L24.55,237.41 L25.05,236.91 L25.55,236.41 L26.05,235.91 L26.55,235.41 L27.05,234.91 L27.55,234.41 L28.05,233.90 L28.55,233.40 L29.06,232.90 L29.56,232.40 L30.06,231.90 L30.56,231.40 L31.06,230.90 L31.56,230.40 L32.06,229.90 L32.56,229.40 L33.06,228.89 L33.56,228.39 L34.07,227.89 L34.57,227.39 L35.07,226.89 L35.57,226.39 L36.07,225.89 L36.57,225.39 L37.07,224.89 L37.57,224.39 L38.07,223.89 L38.57,223.38 L39.07,222.88 L39.58,222.38 L40.08,221.88 L40.58,221.38 L41.08,220.88 L41.58,220.38 L42.08,219.88 L42.58,219.38 L43.08,218.88 L43.58,218.37 L44.08,217.87 L44.59,217.37 L45.09,216.87 L45.59,216.37 L46.09,215.87 L46.59,215.37 L47.09,214.87 L47.59,214.37 L48.09,213.87 L48.59,213.37 L49.09,212.86 L49.59,212.36 L50.10,211.86 L50.60,211.36 L51.10,210.86 L51.60,210.36 L52.10,209.86 L52.60,209.36 L53.10,208.86 L53.60,208.36 L54.10,207.85 L54.60,207.35 L55.11,206.85 L55.61,206.35 L56.11,205.85 L56.61,205.35 L57.11,204.85 L57.61,204.35 L58.11,203.85 L58.61,203.35 L59.11,202.85 L59.61,202.34 L60.11,201.84 L60.62,201.34 L61.12,200.84 L61.62,200.34 L62.12,199.84 L62.62,199.34 L63.12,198.84 L63.62,198.34 L64.12,197.84 L64.62,197.33 L65.12,196.83 L65.63,196.33 L66.13,195.83 L66.63,195.33 L67.13,194.83 L67.63,194.33 L68.13,193.83 L68.63,193.33 L69.13,192.83 L69.63,192.33 L70.13,191.82 L70.63,191.32 L71.14,190.82 L71.64,190.32 L72.14,189.82 L72.64,189.32 L73.14,188.82 L73.64,188.32 L74.14,187.82 L74.64,187.32 L75.14,186.81 L75.64,186.31 L76.15,185.81 L76.65,185.31 L77.15,184.81 L77.65,184.31 L78.15,183.81 L78.65,183.31 L79.15,182.81 L79.65,182.31 L80.15,181.81 L80.65,181.30 L81.15,180.80 L81.66,180.30 L82.16,179.80 L82.66,179.30 L83.16,178.80 L83.66,178.30 L84.16,177.80 L84.66,177.30 L85.16,176.80 L85.66,176.29 L86.16,175.79 L86.67,175.29 L87.17,174.79 L87.67,174.29 L88.17,173.79 L88.67,173.29 L89.17,172.79 L89.67,172.29 L90.17,171.79 L90.67,171.28 L91.17,170.78 L91.67,170.28 L92.18,169.78 L92.68,169.28 L93.18,168.78 L93.68,168.28 L94.18,167.78 L94.68,167.28 L95.18,166.78 L95.68,166.28 L96.18,165.77 L96.68,165.27 L97.19,164.77 L97.69,164.27 L98.19,163.77 L98.69,163.27 L99.19,162.77 L99.69,162.27 L100.19,161.77 L100.69,161.27 L101.19,160.76 L101.69,160.26 L102.20,159.76 L102.70,159.26 L103.20,158.76 L103.70,158.26 L104.20,157.76 L104.70,157.26 L105.20,156.76 L105.70,156.26 L106.20,155.76 L106.70,155.25 L107.20,154.75 L107.71,154.25 L108.21,153.75 L108.71,153.25 L109.21,152.75 L109.71,152.25 L110.21,151.75 L110.71,151.25 L111.21,150.75 L111.71,150.24 L112.21,149.74 L112.72,149.24 L113.22,148.74 L113.72,148.24 L114.22,147.74 L114.72,147.24 L115.22,146.74 L115.72,146.24 L116.22,145.74 L116.72,145.24 L117.22,144.73 L117.72,144.23 L118.23,143.73 L118.73,143.23 L119.23,142.73 L119.73,142.23 L120.23,141.73 L120.73,141.23 L121.23,140.73 L121.73,140.23 L122.23,139.72 L122.73,139.22 L123.24,138.72 L123.74,138.22 L124.24,137.72 L124.74,137.22 L125.24,136.72 L125.74,136.22 L126.24,135.72 L126.74,135.22 L127.24,134.72 L127.74,134.21 L128.24,133.71 L128.75,133.21 L129.25,132.71 L129.75,132.21 L130.25,131.71 L130.75,131.21 L131.25,130.71 L131.75,130.21 L132.25,129.71 L132.75,129.20 L133.25,128.70 L133.76,128.20 L134.26,127.70 L134.76,127.20 L135.26,126.70 L135.76,126.20 L136.26,125.70 L136.76,125.20 L137.26,124.70 L137.76,124.20 L138.26,123.69 L138.76,123.19 L139.27,122.69 L139.77,122.19 L140.27,121.69 L140.77,121.19 L141.27,120.69 L141.77,120.19 L142.27,119.69 L142.77,119.19 L143.27,118.68 L143.77,118.18 L144.28,117.68 L144.78,117.18 L145.28,116.68 L145.78,116.18 L146.28,115.68 L146.78,115.18 L147.28,114.68 L147.78,114.18 L148.28,113.68 L148.78,113.17 L149.28,112.67 L149.79,112.17 L150.29,111.67 L150.79,111.17 L151.29,110.67 L151.79,110.17 L152.29,109.67 L152.79,109.17 L153.29,108.67 L153.79,108.16 L154.29,107.66 L154.80,107.16 L155.30,106.66 L155.80,106.16 L156.30,105.66 L156.80,105.16 L157.30,104.66 L157.80,104.16 L158.30,103.66 L158.80,103.15 L159.30,102.65 L159.80,102.15 L160.31,101.65 L160.81,101.15 L161.31,100.65 L161.81,100.15 L162.31,99.65 L162.81,99.15 L163.31,98.65 L163.81,98.15 L164.31,97.64 L164.81,97.14 L165.32,96.64 L165.82,96.14 L166.32,95.64 L166.82,95.14 L167.32,94.64 L167.82,94.14 L168.32,93.64 L168.82,93.14 L169.32,92.63 L169.82,92.13 L170.33,91.63 L170.83,91.13 L171.33,90.63 L171.83,90.13 L172.33,89.63 L172.83,89.13 L173.33,88.63 L173.83,88.13 L174.33,87.63 L174.83,87.12 L175.33,86.62 L175.84,86.12 L176.34,85.62 L176.84,85.12 L177.34,84.62 L177.84,84.12 L178.34,83.62 L178.84,83.12 L179.34,82.62 L179.84,82.11 L180.34,81.61 L180.85,81.11 L181.35,80.61 L181.85,80.11 L182.35,79.61 L182.85,79.11 L183.35,78.61 L183.85,78.11 L184.35,77.61 L184.85,77.11 L185.35,76.60 L185.85,76.10 L186.36,75.60 L186.86,75.10 L187.36,74.60 L187.86,74.10 L188.36,73.60 L188.86,73.10 L189.36,72.60 L189.86,72.10 L190.36,71.59 L190.86,71.09 L191.37,70.59 L191.87,70.09 L192.37,69.59 L192.87,69.09 L193.37,68.59 L193.87,68.09 L194.37,67.59 L194.87,67.09 L195.37,66.59 L195.87,66.08 L196.37,65.58 L196.88,65.08 L197.38,64.58 L197.88,64.08 L198.38,63.58 L198.88,63.08 L199.38,62.58 L199.88,62.08 L200.38,61.58 L200.88,61.07 L201.38,60.57 L201.89,60.07 L202.39,59.57 L202.89,59.07 L203.39,58.57 L203.89,58.07 L204.39,57.57 L204.89,57.07 L205.39,56.57 L205.89,56.07 L206.39,55.56 L206.89,55.06 L207.40,54.56 L207.90,54.06 L208.40,53.56 L208.90,53.06 L209.40,52.56 L209.90,52.06 L210.40,51.56 L210.90,51.06 L211.40,50.55 L211.90,50.05 L212.41,49.55 L212.91,49.05 L213.41,48.55 L213.91,48.05 L214.41,47.55 L214.91,47.05 L215.41,46.55 L215.91,46.05 L216.41,45.55 L216.91,45.04 L217.41,44.54 L217.92,44.04 L218.42,43.54 L218.92,43.04 L219.42,42.54 L219.92,42.04 L220.42,41.54 L220.92,41.04 L221.42,40.54 L221.92,40.03 L222.42,39.53 L222.93,39.03 L223.43,38.53 L223.93,38.03 L224.43,37.53 L224.93,37.03 L225.43,36.53 L225.93,36.03 L226.43,35.53 L226.93,35.02 L227.43,34.52 L227.93,34.02 L228.44,33.52 L228.94,33.02 L229.44,32.52 L229.94,32.02 L230.44,31.52 L230.94,31.02 L231.44,30.52 L231.94,30.02 L232.44,29.51 L232.94,29.01 L233.45,28.51 L233.95,28.01 L234.45,27.51 L234.95,27.01 L235.45,26.51 L235.95,26.01 L236.45,25.51 L236.95,25.01 L237.45,24.50 L237.95,24.00 L238.46,23.50 L238.96,23.00 L239.46,22.50 L239.96,22.00 L240.46,21.50 L240.96,21.00 L241.46,20.50 L241.96,20.00 L242.46,19.50 L242.96,18.99 L243.46,18.49 L243.97,17.99 L244.47,17.49 L244.97,16.99 L245.47,16.49 L245.97,15.99 L246.47,15.49 L246.97,14.99 L247.47,14.49 L247.97,13.98 L248.47,13.48 L248.98,12.98 L249.48,12.48 L249.98,11.98 L250.48,11.48 L250.98,10.98 L251.48,10.48 L251.98,9.98 L252.48,9.48 L252.98,8.98 L253.48,8.47 L253.98,7.97 L254.49,7.47 L254.99,6.97 L255.49,6.47 L255.99,5.97 L256.49,5.47 L256.99,4.97 L257.49,4.47 L257.99,3.97 L258.49,3.46 L258.99,2.96 L259.50,2.46 L260.00,1.96 L260.50,1.46 L261.00,0.96 L261.50,0.46 L262.00,-0.04 L262.00,-13.05 Z" style="fill: rgb(74, 144, 226); fill-opacity: 0.15; stroke: none;"/><path d=" M0.00,261.96 L0.50,261.46 L1.00,260.96 L1.50,260.46 L2.00,259.95 L2.50,259.45 L3.01,258.95 L3.51,258.45 L4.01,257.95 L4.51,257.45 L5.01,256.95 L5.51,256.45 L6.01,255.95 L6.51,255.45 L7.01,254.94 L7.51,254.44 L8.02,253.94 L8.52,253.44 L9.02,252.94 L9.52,252.44 L10.02,251.94 L10.52,251.44 L11.02,250.94 L11.52,250.44 L12.02,249.94 L12.52,249.43 L13.02,248.93 L13.53,248.43 L14.03,247.93 L14.53,247.43 L15.03,246.93 L15.53,246.43 L16.03,245.93 L16.53,245.43 L17.03,244.93 L17.53,244.42 L18.03,243.92 L18.54,243.42 L19.04,242.92 L19.54,242.42 L20.04,241.92 L20.54,241.42 L21.04,240.92 L21.54,240.42 L22.04,239.92 L22.54,239.42 L23.04,238.91 L23.54,238.41 L24.05,237.91 L24.55,237.41 L25.05,236.91 L25.55,236.41 L26.05,235.91 L26.55,235.41 L27.05,234.91 L27.55,234.41 L28.05,233.90 L28.55,233.40 L29.06,232.90 L29.56,232.40 L30.06,231.90 L30.56,231.40 L31.06,230.90 L31.56,230.40 L32.06,229.90 L32.56,229.40 L33.06,228.89 L33.56,228.39 L34.07,227.89 L34.57,227.39 L35.07,226.89 L35.57,226.39 L36.07,225.89 L36.57,225.39 L37.07,224.89 L37.57,224.39 L38.07,223.89 L38.57,223.38 L39.07,222.88 L39.58,222.38 L40.08,221.88 L40.58,221.38 L41.08,220.88 L41.58,220.38 L42.08,219.88 L42.58,219.38 L43.08,218.88 L43.58,218.37 L44.08,217.87 L44.59,217.37 L45.09,216.87 L45.59,216.37 L46.09,215.87 L46.59,215.37 L47.09,214.87 L47.59,214.37 L48.09,213.87 L48.59,213.37 L49.09,212.86 L49.59,212.36 L50.10,211.86 L50.60,211.36 L51.10,210.86 L51.60,210.36 L52.10,209.86 L52.60,209.36 L53.10,208.86 L53.60,208.36 L54.10,207.85 L54.60,207.35 L55.11,206.85 L55.61,206.35 L56.11,205.85 L56.61,205.35 L57.11,204.85 L57.61,204.35 L58.11,203.85 L58.61,203.35 L59.11,202.85 L59.61,202.34 L60.11,201.84 L60.62,201.34 L61.12,200.84 L61.62,200.34 L62.12,199.84 L62.62,199.34 L63.12,198.84 L63.62,198.34 L64.12,197.84 L64.62,197.33 L65.12,196.83 L65.63,196.33 L66.13,195.83 L66.63,195.33 L67.13,194.83 L67.63,194.33 L68.13,193.83 L68.63,193.33 L69.13,192.83 L69.63,192.33 L70.13,191.82 L70.63,191.32 L71.14,190.82 L71.64,190.32 L72.14,189.82 L72.64,189.32 L73.14,188.82 L73.64,188.32 L74.14,187.82 L74.64,187.32 L75.14,186.81 L75.64,186.31 L76.15,185.81 L76.65,185.31 L77.15,184.81 L77.65,184.31 L78.15,183.81 L78.65,183.31 L79.15,182.81 L79.65,182.31 L80.15,181.81 L80.65,181.30 L81.15,180.80 L81.66,180.30 L82.16,179.80 L82.66,179.30 L83.16,178.80 L83.66,178.30 L84.16,177.80 L84.66,177.30 L85.16,176.80 L85.66,176.29 L86.16,175.79 L86.67,175.29 L87.17,174.79 L87.67,174.29 L88.17,173.79 L88.67,173.29 L89.17,172.79 L89.67,172.29 L90.17,171.79 L90.67,171.28 L91.17,170.78 L91.67,170.28 L92.18,169.78 L92.68,169.28 L93.18,168.78 L93.68,168.28 L94.18,167.78 L94.68,167.28 L95.18,166.78 L95.68,166.28 L96.18,165.77 L96.68,165.27 L97.19,164.77 L97.69,164.27 L98.19,163.77 L98.69,163.27 L99.19,162.77 L99.69,162.27 L100.19,161.77 L100.69,161.27 L101.19,160.76 L101.69,160.26 L102.20,159.76 L102.70,159.26 L103.20,158.76 L103.70,158.26 L104.20,157.76 L104.70,157.26 L105.20,156.76 L105.70,156.26 L106.20,155.76 L106.70,155.25 L107.20,154.75 L107.71,154.25 L108.21,153.75 L108.71,153.25 L109.21,152.75 L109.71,152.25 L110.21,151.75 L110.71,151.25 L111.21,150.75 L111.71,150.24 L112.21,149.74 L112.72,149.24 L113.22,148.74 L113.72,148.24 L114.22,147.74 L114.72,147.24 L115.22,146.74 L115.72,146.24 L116.22,145.74 L116.72,145.24 L117.22,144.73 L117.72,144.23 L118.23,143.73 L118.73,143.23 L119.23,142.73 L119.73,142.23 L120.23,141.73 L120.73,141.23 L121.23,140.73 L121.73,140.23 L122.23,139.72 L122.73,139.22 L123.24,138.72 L123.74,138.22 L124.24,137.72 L124.74,137.22 L125.24,136.72 L125.74,136.22 L126.24,135.72 L126.74,135.22 L127.24,134.72 L127.74,134.21 L128.24,133.71 L128.75,133.21 L129.25,132.71 L129.75,132.21 L130.25,131.71 L130.75,131.21 L131.25,130.71 L131.75,130.21 L132.25,129.71 L132.75,129.20 L133.25,128.70 L133.76,128.20 L134.26,127.70 L134.76,127.20 L135.26,126.70 L135.76,126.20 L136.26,125.70 L136.76,125.20 L137.26,124.70 L137.76,124.20 L138.26,123.69 L138.76,123.19 L139.27,122.69 L139.77,122.19 L140.27,121.69 L140.77,121.19 L141.27,120.69 L141.77,120.19 L142.27,119.69 L142.77,119.19 L143.27,118.68 L143.77,118.18 L144.28,117.68 L144.78,117.18 L145.28,116.68 L145.78,116.18 L146.28,115.68 L146.78,115.18 L147.28,114.68 L147.78,114.18 L148.28,113.68 L148.78,113.17 L149.28,112.67 L149.79,112.17 L150.29,111.67 L150.79,111.17 L151.29,110.67 L151.79,110.17 L152.29,109.67 L152.79,109.17 L153.29,108.67 L153.79,108.16 L154.29,107.66 L154.80,107.16 L155.30,106.66 L155.80,106.16 L156.30,105.66 L156.80,105.16 L157.30,104.66 L157.80,104.16 L158.30,103.66 L158.80,103.15 L159.30,102.65 L159.80,102.15 L160.31,101.65 L160.81,101.15 L161.31,100.65 L161.81,100.15 L162.31,99.65 L162.81,99.15 L163.31,98.65 L163.81,98.15 L164.31,97.64 L164.81,97.14 L165.32,96.64 L165.82,96.14 L166.32,95.64 L166.82,95.14 L167.32,94.64 L167.82,94.14 L168.32,93.64 L168.82,93.14 L169.32,92.63 L169.82,92.13 L170.33,91.63 L170.83,91.13 L171.33,90.63 L171.83,90.13 L172.33,89.63 L172.83,89.13 L173.33,88.63 L173.83,88.13 L174.33,87.63 L174.83,87.12 L175.33,86.62 L175.84,86.12 L176.34,85.62 L176.84,85.12 L177.34,84.62 L177.84,84.12 L178.34,83.62 L178.84,83.12 L179.34,82.62 L179.84,82.11 L180.34,81.61 L180.85,81.11 L181.35,80.61 L181.85,80.11 L182.35,79.61 L182.85,79.11 L183.35,78.61 L183.85,78.11 L184.35,77.61 L184.85,77.11 L185.35,76.60 L185.85,76.10 L186.36,75.60 L186.86,75.10 L187.36,74.60 L187.86,74.10 L188.36,73.60 L188.86,73.10 L189.36,72.60 L189.86,72.10 L190.36,71.59 L190.86,71.09 L191.37,70.59 L191.87,70.09 L192.37,69.59 L192.87,69.09 L193.37,68.59 L193.87,68.09 L194.37,67.59 L194.87,67.09 L195.37,66.59 L195.87,66.08 L196.37,65.58 L196.88,65.08 L197.38,64.58 L197.88,64.08 L198.38,63.58 L198.88,63.08 L199.38,62.58 L199.88,62.08 L200.38,61.58 L200.88,61.07 L201.38,60.57 L201.89,60.07 L202.39,59.57 L202.89,59.07 L203.39,58.57 L203.89,58.07 L204.39,57.57 L204.89,57.07 L205.39,56.57 L205.89,56.07 L206.39,55.56 L206.89,55.06 L207.40,54.56 L207.90,54.06 L208.40,53.56 L208.90,53.06 L209.40,52.56 L209.90,52.06 L210.40,51.56 L210.90,51.06 L211.40,50.55 L211.90,50.05 L212.41,49.55 L212.91,49.05 L213.41,48.55 L213.91,48.05 L214.41,47.55 L214.91,47.05 L215.41,46.55 L215.91,46.05 L216.41,45.55 L216.91,45.04 L217.41,44.54 L217.92,44.04 L218.42,43.54 L218.92,43.04 L219.42,42.54 L219.92,42.04 L220.42,41.54 L220.92,41.04 L221.42,40.54 L221.92,40.03 L222.42,39.53 L222.93,39.03 L223.43,38.53 L223.93,38.03 L224.43,37.53 L224.93,37.03 L225.43,36.53 L225.93,36.03 L226.43,35.53 L226.93,35.02 L227.43,34.52 L227.93,34.02 L228.44,33.52 L228.94,33.02 L229.44,32.52 L229.94,32.02 L230.44,31.52 L230.94,31.02 L231.44,30.52 L231.94,30.02 L232.44,29.51 L232.94,29.01 L233.45,28.51 L233.95,28.01 L234.45,27.51 L234.95,27.01 L235.45,26.51 L235.95,26.01 L236.45,25.51 L236.95,25.01 L237.45,24.50 L237.95,24.00 L238.46,23.50 L238.96,23.00 L239.46,22.50 L239.96,22.00 L240.46,21.50 L240.96,21.00 L241.46,20.50 L241.96,20.00 L242.46,19.50 L242.96,18.99 L243.46,18.49 L243.97,17.99 L244.47,17.49 L244.97,16.99 L245.47,16.49 L245.97,15.99 L246.47,15.49 L246.97,14.99 L247.47,14.49 L247.97,13.98 L248.47,13.48 L248.98,12.98 L249.48,12.48 L249.98,11.98 L250.48,11.48 L250.98,10.98 L251.48,10.48 L251.98,9.98 L252.48,9.48 L252.98,8.98 L253.48,8.47 L253.98,7.97 L254.49,7.47 L254.99,6.97 L255.49,6.47 L255.99,5.97 L256.49,5.47 L256.99,4.97 L257.49,4.47 L257.99,3.97 L258.49,3.46 L258.99,2.96 L259.50,2.46 L260.00,1.96 L260.50,1.46 L261.00,0.96 L261.50,0.46 L262.00,-0.04" style="stroke-width: 2px; stroke: rgb(74, 144, 226); stroke-opacity: 0.8; fill: none; fill-opacity: 0.15;"/></g></g></g><g class="test-xtl" style="font-family: &quot;Open Sans&quot;, verdana, arial, sans-serif;"/><g class="test-ytl" style="font-family: &quot;Open Sans&quot;, verdana, arial, sans-serif;"/><rect class="real" x="1" y="1" width="260" height="260" style="fill: transparent; stroke: none;"/></g></g></g><g/></g><g/><g/><g/></svg>
        <svg xmlns="http://www.w3.org/2000/svg" xmlns:xlink="http://www.w3.org/1999/xlink" width="660" height="268" style="width:660px;height:268px;font-family:Asana-Math, Asana;background:#FFF;"></svg>
</svg>
